HIERARCHY
ROOT __0
{
 OFFSET 0.0 0.0 0.0
 CHANNELS 0
 JOINT Torso
 {
  OFFSET 0.000000 -0.044240 -0.030846
  CHANNELS 6 Xposition Yposition Zposition Xrotation Yrotation Zrotation
  JOINT Head
  {
   OFFSET 0.000000 0.000000 0.855724
   CHANNELS 3 Xrotation Yrotation Zrotation
   End Site
   {
    OFFSET 0.008675 -0.000000 1.041240
   }
  }
  JOINT Shoulder_Right
  {
   OFFSET 0.000000 0.000000 0.855724
   CHANNELS 3 Xrotation Yrotation Zrotation
   JOINT UpperArm_Right
   {
    OFFSET -0.336507 -0.000000 0.028993
    CHANNELS 3 Xrotation Yrotation Zrotation
    JOINT LowerArm_Right
    {
     OFFSET -0.504548 0.000000 0.001468
     CHANNELS 3 Xrotation Yrotation Zrotation
     JOINT Hand_Right
     {
      OFFSET -0.549985 0.000000 0.004760
      CHANNELS 3 Xrotation Yrotation Zrotation
      JOINT Item_Right
      {
       OFFSET -0.244104 0.000000 0.003628
       CHANNELS 3 Xrotation Yrotation Zrotation
       End Site
       {
        OFFSET 0.000000 -0.509993 -0.050129
       }
      }
     }
    }
   }
  }
  JOINT Shoulder_Left
  {
   OFFSET -0.000000 0.000000 0.855724
   CHANNELS 3 Xrotation Yrotation Zrotation
   JOINT UpperArm_Left
   {
    OFFSET 0.336507 -0.000000 0.028993
    CHANNELS 3 Xrotation Yrotation Zrotation
    JOINT LowerArm_Left
    {
     OFFSET 0.504548 0.000000 0.001468
     CHANNELS 3 Xrotation Yrotation Zrotation
     JOINT Hand_Left
     {
      OFFSET 0.549985 0.000000 0.004760
      CHANNELS 3 Xrotation Yrotation Zrotation
      JOINT Item_Left
      {
       OFFSET 0.244104 0.000000 0.003628
       CHANNELS 3 Xrotation Yrotation Zrotation
       End Site
       {
        OFFSET -0.000000 -0.509993 -0.050129
       }
      }
     }
    }
   }
  }
 }
 JOINT Thigh_Right
 {
  OFFSET 0.000000 -0.044240 -0.030846
  CHANNELS 6 Xposition Yposition Zposition Xrotation Yrotation Zrotation
  JOINT UpperLeg_Right
  {
   OFFSET -0.251561 0.000000 -0.030361
   CHANNELS 3 Xrotation Yrotation Zrotation
   JOINT LowerLeg_Right
   {
    OFFSET -0.008675 0.000000 -0.563358
    CHANNELS 3 Xrotation Yrotation Zrotation
    End Site
    {
     OFFSET -0.007495 0.000000 -0.599582
    }
   }
  }
 }
 JOINT Thigh_Left
 {
  OFFSET -0.000000 -0.044240 -0.030846
  CHANNELS 6 Xposition Yposition Zposition Xrotation Yrotation Zrotation
  JOINT UpperLeg_Left
  {
   OFFSET 0.251561 0.000000 -0.030361
   CHANNELS 3 Xrotation Yrotation Zrotation
   JOINT LowerLeg_Left
   {
    OFFSET 0.008675 0.000000 -0.563358
    CHANNELS 3 Xrotation Yrotation Zrotation
    End Site
    {
     OFFSET 0.007495 0.000000 -0.599582
    }
   }
  }
 }
}
MOTION
Frames: 6
Frame Time: 0.041667
-0.000000 -0.044240 -0.038687 -0.000000 0.577419 0.000000 3.845826 -1.008783 0.013529 0.000000 -0.000000 0.000000 -27.660424 -71.864867 0.082205 -10.375896 -10.682956 50.943089 0.000000 -0.000001 0.000001 -180.000005 179.999991 180.000005 0.000000 0.000000 0.000000 -2.496109 65.679809 3.882628 -4.120027 1.074069 -8.949107 0.080122 2.147190 -0.243077 -0.000000 0.000001 0.000000 0.000000 -0.044240 -0.038687 0.000000 0.000000 0.000000 -1.369647 -0.000014 0.001094 1.362461 0.000001 -0.000000 -0.000000 -0.044240 -0.038687 0.000000 -0.000000 -0.000000 0.030063 -0.000001 -0.001146 1.765591 0.000126 0.006979 
0.000000 -0.044240 -0.038687 -0.000000 0.424773 0.000000 3.019037 -0.708620 -0.001239 0.000000 -0.000000 0.000000 -28.372925 -71.847108 0.140268 -10.658159 -9.873546 50.105469 0.000000 -0.000001 -0.000001 -180.000005 180.000005 180.000005 0.000000 -0.000000 0.000000 -1.986975 66.687296 3.031037 -3.127723 0.833822 -6.791440 0.080123 2.147193 -0.243077 -0.000000 0.000002 0.000000 0.000000 -0.044240 -0.038687 0.000000 0.000000 0.000000 -1.369647 -0.000014 0.001094 1.362461 0.000001 -0.000000 -0.000000 -0.044240 -0.038687 0.000000 -0.000000 -0.000000 0.030063 -0.000001 -0.001146 1.765591 0.000126 0.006979 
0.000000 -0.044240 -0.038687 -0.000000 0.281579 0.000000 2.196080 -0.426076 -0.010880 0.000000 -0.000000 -0.000000 -29.084206 -71.829609 0.198910 -10.910422 -9.000784 48.858604 -0.000000 -0.000001 0.000001 -180.000005 180.000005 180.000005 0.000000 0.000000 -0.000000 -1.420702 67.686997 2.126072 -2.127127 0.631133 -4.630044 0.080123 2.147192 -0.243077 -0.000001 -0.000001 -0.000000 0.000000 -0.044240 -0.038687 0.000000 0.000000 0.000000 -1.369647 -0.000014 0.001094 1.362461 0.000001 -0.000000 -0.000000 -0.044240 -0.038687 0.000000 -0.000000 -0.000000 0.030063 -0.000001 -0.001146 1.765591 0.000126 0.006979 
-0.000000 -0.044240 -0.038687 -0.000000 0.160715 0.000000 1.471927 -0.187028 -0.015622 0.000000 0.000001 -0.000000 -29.711036 -71.814371 0.251150 -11.086693 -8.138904 47.168853 0.000000 -0.000001 0.000001 -180.000005 180.000005 180.000005 0.000000 0.000000 0.000000 -0.866796 68.563590 1.275684 -1.238784 0.483806 -2.720972 0.080123 2.147191 -0.243077 -0.000001 -0.000003 -0.000000 0.000000 -0.044240 -0.038687 0.000000 0.000000 0.000000 -1.369647 -0.000014 0.001094 1.362461 0.000001 -0.000000 -0.000000 -0.044240 -0.038687 0.000000 -0.000000 -0.000000 0.030063 -0.000001 -0.001146 1.765591 0.000126 0.006979 
-0.000000 -0.044240 -0.038687 -0.000000 0.071259 0.000000 0.919532 -0.009820 -0.017028 0.000000 -0.000000 -0.000000 -30.189549 -71.802842 0.291403 -11.154397 -7.353154 45.044749 -0.000000 -0.000002 -0.000000 -180.000005 179.999991 180.000005 0.000000 -0.000000 0.000000 -0.405142 69.230067 0.588775 -0.557419 0.391286 -1.261794 0.080123 2.147188 -0.243077 -0.000001 0.000001 0.000000 0.000000 -0.044240 -0.038687 0.000000 0.000000 0.000000 -1.369647 -0.000014 0.001094 1.362461 0.000001 -0.000000 -0.000000 -0.044240 -0.038687 0.000000 -0.000000 -0.000000 0.030063 -0.000001 -0.001146 1.765591 0.000126 0.006979 
-0.000000 -0.044240 -0.038687 -0.000000 0.017546 0.000000 0.580355 0.096698 -0.016971 0.000000 0.000000 -0.000000 -30.483547 -71.795800 0.316284 -11.099302 -6.690645 42.525878 0.000000 -0.000003 -0.000001 -180.000005 180.000005 180.000005 0.000000 0.000000 -0.000000 -0.103391 69.638211 0.149104 -0.137767 0.343071 -0.364910 0.080123 2.147190 -0.243077 -0.000000 0.000000 0.000000 0.000000 -0.044240 -0.038687 0.000000 0.000000 0.000000 -1.369647 -0.000014 0.001094 1.362461 0.000001 -0.000000 -0.000000 -0.044240 -0.038687 0.000000 -0.000000 -0.000000 0.030063 -0.000001 -0.001146 1.765591 0.000126 0.006979 
